<?xml version="1.0" encoding="utf-8"?>
<!-- Generator: Adobe Illustrator 23.0.2, SVG Export Plug-In . SVG Version: 6.00 Build 0)  -->
<svg version="1.1" id="Layer_1" xmlns="http://www.w3.org/2000/svg" xmlns:xlink="http://www.w3.org/1999/xlink" x="0px" y="0px"
	 viewBox="0 0 557.3 179.1" style="enable-background:new 0 0 557.3 179.1;" xml:space="preserve">
<style type="text/css">
	.st0{fill:#29A9E1;}
	.st1{fill:#FFFFFF;}
</style>
<g>
	<path d="M176.6,112.3c-5.6,0-11.7-1.8-18.3-5.2l4.2-8.7c3.6,2.2,9.9,5.1,15,5.1c3.4,0,6-2.2,6-5.1c0-3.1-2.2-4.7-7-5.6l-5.3-1
		c-3-0.5-6.7-2.7-8.3-4.6c-1.6-1.9-2.6-5.2-2.6-8.1c0-8.9,7-14.8,17.5-14.8c7.3,0,12,2.2,16.2,4.2l-3.9,8c-4.5-2.3-7.8-3.3-11.2-3.3
		c-3.5,0-5.8,1.8-5.8,4.4c0,2.3,1.5,3.5,5.7,4.6l5.5,1.4c5.6,1.4,7.4,3.1,9,5.1c1.7,2.1,2.5,4.7,2.5,7.7
		C196,105.9,188.2,112.3,176.6,112.3z"/>
	<path d="M234.6,112.1c-1.5-1.1-2.7-2.6-3.5-4.4c-2.9,2.8-7.2,4.3-11.9,4.3c-6.4,0-11.9-3-13.4-7.3c-0.7-2-1-4.4-1-9v-29l11.7-2.2
		v29.1c0,4.1,0.4,6.2,1,7.4c0.6,1.2,2.4,2.1,4.2,2.1c2.9,0,6.5-2.1,7.3-4.3V66.9l11.3-2.4v34.6c0,3,1,6.1,2.7,8.2L234.6,112.1z"/>
	<path d="M276.8,110.9V81.4c0-5.1-0.9-6.6-4-6.6c-2.4,0-5.5,1.6-8.2,4.1v32h-11.9V78c0-3.9-0.5-7.6-1.6-10.6l10.5-3
		c1.1,1.9,1.7,3.8,1.7,5.7c1.8-1.2,3.3-2.3,5.2-3.4c2.4-1.2,5.5-1.9,8.1-1.9c5,0,9.5,2.7,10.9,6.6c0.6,1.7,0.9,3.6,0.9,6.5v33.1
		H276.8z"/>
	<path d="M311.9,91.9v0.4c0,7,3.5,11,9.6,11c4.1,0,7.9-1.5,11.5-4.5l4.6,7.1c-5.2,4.2-10.7,6.3-17.1,6.3c-13,0-21.4-9.2-21.4-23.5
		c0-8.1,1.7-13.5,5.7-18c3.7-4.2,8.2-6.1,14.3-6.1c5.2,0,10.2,1.8,13.1,4.8c4.2,4.2,6,10.4,6,19.8v2.7H311.9z M325.8,82.7
		c0-3.4-0.4-5.1-1.4-6.8c-1.2-1.8-2.8-2.7-5.2-2.7c-4.5,0-7.1,3.5-7.1,9.8v0.2h13.7V82.7z"/>
	<path d="M370,75.9c-1.2-0.6-2.1-0.9-3.5-0.9c-2.7,0-5,1.2-7.3,3.8v32h-11.9V80.6c0-6.1-0.7-10.7-1.7-13.3l10.6-2.8
		c1.1,1.9,1.7,3.9,1.9,6.5c2.6-3.5,6.2-6.5,10.6-6.5c1.8,0,2.6,0.2,4.4,1L370,75.9z"/>
	<path d="M414.1,73.9c-1.2,0-2.4-0.2-3.1-0.3c1.8,2.1,2.7,4.4,2.7,7.4c0,7.8-7.1,13.5-16.7,13.5c-0.5,0-0.9,0-1.8-0.1
		c-3,1.4-4.7,2.5-4.7,3.7c0,0.6,0.7,1.1,1.9,1.1l6.4,0.1c6.9,0.1,10.5,1.2,13.7,4.1c2.7,2.5,3.9,5.6,3.9,9.6c0,3.8-1.2,6.7-3.6,9.4
		c-4,4.2-10.8,5.8-17.9,5.8c-6.5,0-13.1-1.1-17.2-4.9c-2.5-2.3-3.7-5-3.7-8.1c0-2.5,0.6-3.7,1.1-4.6h11c-0.4,1.1-0.5,1.7-0.5,2.9
		c0,3.6,3,5.6,8.5,5.6c3,0,5.6-0.4,7.4-1.5c1.8-1.1,2.9-2.7,2.9-4.6c0-4.1-3.6-5.3-8.3-5.4l-5-0.1c-5.3-0.1-8.8-0.5-10.9-1.4
		c-2.1-0.8-3.5-2.8-3.5-5.9c0-2.9,0.9-5.7,8.3-7.6c-6.6-1.7-9.7-5.8-9.7-12.6c0-9.3,7.5-15.3,19.1-15.3c2.6,0,4.9,0.4,8.1,1.2
		c2.5,0.6,4.1,1,5.6,1c3.3,0,6.6-1.4,9.4-3.9l5,7.5C419.8,72.9,417.3,73.9,414.1,73.9z M394.2,73.4c-4.5,0-7.1,2.5-7.1,6.7
		c0,4.6,2.8,6.5,7,6.5c4.7,0,7.3-2.3,7.3-6.5C401.4,75.9,398.8,73.4,394.2,73.4z"/>
	<path d="M458.7,105.6c-3.5,3.9-8,6.3-15,6.3c-12.3,0-20.4-9.2-20.4-23.5s8.1-23.7,20.4-23.7c6.5,0,11.5,2.2,15.4,6.8
		c3.6,4.2,5.2,9.2,5.2,16.6C464.3,95.8,462.6,101.1,458.7,105.6z M449,75.8c-1.2-1.5-3-2.4-5.1-2.4c-2.8,0-5.1,1.8-6.1,4.6
		c-0.8,2.4-1.2,5.6-1.2,10.1c0,5.2,0.5,9.1,1.5,11.4c1.1,2.5,3.7,3.7,6,3.7c5.1,0,7.3-4.6,7.3-15.3C451.4,81.8,450.6,77.9,449,75.8z
		"/>
	<path d="M488.4,112.3c-5.6,0-11.7-1.8-18.3-5.2l4.2-8.7c3.6,2.2,9.9,5.1,15,5.1c3.4,0,6-2.2,6-5.1c0-3.1-2.2-4.7-7-5.6l-5.3-1
		c-3-0.5-6.7-2.7-8.3-4.6c-1.6-1.9-2.6-5.2-2.6-8.1c0-8.9,7-14.8,17.5-14.8c7.3,0,12,2.2,16.2,4.2l-3.9,8c-4.5-2.3-7.8-3.3-11.2-3.3
		c-3.5,0-5.8,1.8-5.8,4.4c0,2.3,1.5,3.5,5.7,4.6l5.5,1.4c5.6,1.4,7.4,3.1,9,5.1c1.7,2.1,2.5,4.7,2.5,7.7
		C507.8,105.9,500,112.3,488.4,112.3z"/>
</g>
<circle class="st0" cx="89.6" cy="89.6" r="40.1"/>
<path d="M98.6,81.7l-1.9-1.3l-7-5.2c-7.1-5.2-8.2-8.7-8.2-13.5c0,0,0-0.1,0-0.1c1.8,2,4.4,3.3,8,3.3c6.6,0,11.2-4.9,11.2-11.3
	c0-0.9-0.1-1.7-0.3-2.5c8.8,2,13.9,6.6,16.2,8.7c0-8.6,0.9-18.4,1.3-20c-1.1,0-4.1-0.4-9.3-1.2c-3.6-0.7-8.1-1.2-13.8-1.2
	c-20.2,0-32.4,12.9-32.4,28.3c0,9.9,3.4,19.5,18.7,29.2l1.3,0.8l7.2,4.8c8.5,5.9,10.3,9.8,10.3,15.1c0,1.4-0.2,2.7-0.5,3.9
	c-1.8-3.6-5.4-6.1-9.9-6.1c-7.8,0-11,6.3-11,11.3c0,0.9,0.1,1.7,0.3,2.6c-7.7-1.6-14.2-5.7-18.4-10.4c0.1,6.9-0.9,16.1-1.5,18.6
	c5.3,3.6,16.6,5.8,25.5,5.8c6.1,0,15-1.3,22.2-5.7c9.7-6.1,13.5-16.6,13.5-24.7C120.2,99.8,115.4,92.2,98.6,81.7z"/>
<polygon class="st1" points="89.6,69.3 97.5,80.9 111,84.8 102.4,95.8 102.8,109.8 89.6,105.1 76.5,109.8 76.9,95.8 68.3,84.8 
	81.8,80.9 "/>
</svg>
